<!-- <svg  width="8" height="14" viewBox="0 0 9 15"  xmlns="http://www.w3.org/2000/svg">
<path id="face-icons" fill="#000000" d="M8.08836 8.28L8.50686 5.61602H5.89022V3.88729C5.89022 3.15847 6.25574 2.44806 7.42765 2.44806H8.61722V0.179975C8.61722 0.179975 7.53772 0 6.50561 0C4.35073 0 2.9422 1.27593 2.9422 3.5857V5.61602H0.546875V8.28H2.9422V14.72H5.89022V8.28H8.08836Z" />
</svg> -->
<svg version="1.1" xmlns="http://www.w3.org/2000/svg" xmlns:xlink="http://www.w3.org/1999/xlink" x="0px" y="0px"
	 width="30px" height="30px" viewBox="0 0 30 30" enable-background="new 0 0 30 30" xml:space="preserve">
   <path id="facebook" fill="#ffffff" d="M17.252,11.106V8.65c0-0.922,0.611-1.138,1.041-1.138h2.643V3.459l-3.639-0.015
	c-4.041,0-4.961,3.023-4.961,4.961v2.701H10v4.178h2.336v11.823h4.916V15.284h3.316l0.428-4.178H17.252z"/>
  </svg>