<svg width="36" height="36" viewBox="0 0 36 36" fill="none" xmlns="http://www.w3.org/2000/svg">
<path d="M30.3743 5.6364C28.7522 3.99825 26.8224 2.69674 24.6958 1.80665C22.5692 0.916561 20.2877 0.455434 17.9823 0.44976C15.6769 0.444086 13.3931 0.893977 11.2621 1.77359C9.13117 2.6532 7.19499 3.94519 5.56484 5.57534C3.93469 7.20549 2.6427 9.14167 1.76309 11.2727C0.883478 13.4036 0.433588 15.6874 0.439262 17.9928C0.444936 20.2982 0.906063 22.5797 1.79615 24.7063C2.68624 26.8329 3.98775 28.7627 5.6259 30.3848C7.24801 32.023 9.1778 33.3245 11.3044 34.2146C13.4311 35.1047 15.7126 35.5658 18.018 35.5715C20.3233 35.5772 22.6071 35.1273 24.7381 34.2477C26.8691 33.3681 28.8052 32.0761 30.4354 30.4459C32.0655 28.8158 33.3575 26.8796 34.2371 24.7486C35.1168 22.6176 35.5667 20.3338 35.561 18.0285C35.5553 15.7231 35.0942 13.4416 34.2041 11.3149C33.314 9.18831 32.0125 7.25851 30.3743 5.6364ZM3.00012 18.0106C2.99956 16.6831 3.17558 15.3613 3.52356 14.0802C4.097 15.3145 4.92981 16.3809 5.49621 17.6473C6.22824 19.2755 8.19387 18.8239 9.06184 20.2505C9.83215 21.5169 9.00949 23.1184 9.58606 24.4434C10.0048 25.4052 10.9923 25.6153 11.6736 26.3184C12.3697 27.0278 12.3548 27.9997 12.4611 28.9247C12.581 30.0115 12.7754 31.0888 13.0431 32.1489C13.0431 32.1567 13.0431 32.1653 13.0493 32.1731C7.20325 30.12 3.00012 24.5473 3.00012 18.0106ZM18.0001 33.0106C17.1624 33.0104 16.3262 32.9403 15.5001 32.8013C15.5087 32.5895 15.5126 32.3919 15.5337 32.2544C15.7236 31.0122 16.3454 29.7973 17.1845 28.8677C18.0134 27.9505 19.1493 27.3302 19.8493 26.2895C20.5353 25.2739 20.7407 23.9067 20.4579 22.72C20.0415 20.9669 17.6595 20.3817 16.3751 19.4309C15.6368 18.8841 14.9798 18.0387 14.0103 17.97C13.5634 17.9387 13.1892 18.0348 12.7462 17.9208C12.34 17.8153 12.0212 17.5966 11.5884 17.6536C10.7798 17.7598 10.2697 18.6239 9.4009 18.5067C8.57668 18.3966 7.72746 17.4317 7.53996 16.6466C7.29934 15.6372 8.09778 15.3098 8.95324 15.22C9.31028 15.1825 9.71106 15.1419 10.054 15.2731C10.5056 15.4403 10.7189 15.8825 11.1243 16.1059C11.8845 16.5231 12.0384 15.8567 11.922 15.1817C11.7478 14.1708 11.5447 13.7591 12.4462 13.063C13.0712 12.5833 13.6056 12.2364 13.5056 11.3747C13.4462 10.8684 13.1689 10.6395 13.4275 10.1356C13.6236 9.75203 14.1618 9.40593 14.5126 9.17703C15.4181 8.5864 18.3915 8.63015 17.1767 6.97703C16.8197 6.49187 16.1611 5.62468 15.5361 5.50593C14.7548 5.35828 14.4079 6.23015 13.8634 6.61453C13.3009 7.01218 12.2056 7.46375 11.6423 6.8489C10.8845 6.02156 12.1447 5.75046 12.4236 5.17234C12.5525 4.90281 12.4236 4.52859 12.2064 4.17625C12.4881 4.0575 12.7746 3.94734 13.0657 3.84578C13.2482 3.98054 13.4647 4.06171 13.6907 4.08015C14.2134 4.11453 14.7064 3.83171 15.1626 4.18796C15.6689 4.57859 16.0337 5.07234 16.7056 5.19421C17.3556 5.31218 18.0439 4.93328 18.2048 4.26765C18.3025 3.86296 18.2048 3.43562 18.1111 3.01765C21.0329 3.03446 23.8855 3.90951 26.3142 5.53406C26.1579 5.47468 25.9712 5.48171 25.7407 5.58875C25.2665 5.80906 24.5947 6.37 24.5392 6.92625C24.4759 7.5575 25.4071 7.64656 25.8493 7.64656C26.5134 7.64656 27.1861 7.34968 26.972 6.5825C26.879 6.24968 26.7525 5.90359 26.5486 5.69422C27.0387 6.03434 27.5083 6.40321 27.9548 6.7989C27.9478 6.80593 27.9407 6.81218 27.9337 6.82C27.4837 7.28875 26.9611 7.65984 26.6532 8.23015C26.4361 8.63172 26.1915 8.82234 25.7517 8.92625C25.5095 8.98328 25.2329 9.00437 25.0298 9.16687C24.4642 9.61218 24.7861 10.6825 25.322 11.0036C25.9993 11.4091 27.004 11.2184 27.515 10.6395C27.9142 10.1864 28.1493 9.39968 28.8673 9.40047C29.1834 9.39981 29.487 9.52357 29.7126 9.745C30.0095 10.0528 29.9509 10.3403 30.0142 10.7247C30.1259 11.4075 30.7282 11.0372 31.0946 10.6927C31.3617 11.168 31.6027 11.6575 31.8165 12.1591C31.4134 12.7395 31.0931 13.3723 30.1236 12.6958C29.5431 12.2903 29.1861 11.702 28.4571 11.5192C27.8204 11.363 27.1681 11.5255 26.5392 11.6341C25.8243 11.7583 24.9767 11.813 24.4345 12.3544C23.9103 12.8762 23.6329 13.5747 23.0751 14.0989C21.9962 15.1145 21.5407 16.2231 22.2392 17.6591C22.9111 19.0395 24.3165 19.7887 25.8329 19.6903C27.3228 19.5911 28.8704 18.727 28.8275 20.8919C28.8118 21.6583 28.972 22.1888 29.2071 22.9005C29.4251 23.5567 29.4103 24.1927 29.4603 24.87C29.5078 25.6632 29.6318 26.4499 29.8306 27.2192C28.4303 29.0222 26.6364 30.4812 24.586 31.485C22.5357 32.4887 20.283 33.0105 18.0001 33.0106Z" fill="#3671E9"/>
</svg>
